<svg xmlns="http://www.w3.org/2000/svg" viewBox="0 0 1000 1380" width="1000" height="1380" font-family="'Segoe UI', system-ui, sans-serif">
  <defs>
    <linearGradient id="bgGrad" x1="0" y1="0" x2="0" y2="1">
      <stop offset="0%" stop-color="#0D1117"/>
      <stop offset="100%" stop-color="#161B22"/>
    </linearGradient>
    <linearGradient id="serverGrad" x1="0" y1="0" x2="1" y2="0">
      <stop offset="0%" stop-color="#1C2E4A"/>
      <stop offset="100%" stop-color="#1A3A5C"/>
    </linearGradient>
    <linearGradient id="phpGrad" x1="0" y1="0" x2="1" y2="0">
      <stop offset="0%" stop-color="#1A3A1A"/>
      <stop offset="100%" stop-color="#1F4A1F"/>
    </linearGradient>
    <linearGradient id="wpGrad" x1="0" y1="0" x2="1" y2="0">
      <stop offset="0%" stop-color="#3A2A10"/>
      <stop offset="100%" stop-color="#4A3518"/>
    </linearGradient>
    <linearGradient id="fixGrad" x1="0" y1="0" x2="1" y2="0">
      <stop offset="0%" stop-color="#3A1A1A"/>
      <stop offset="100%" stop-color="#4A2020"/>
    </linearGradient>
    <linearGradient id="problemGrad" x1="0" y1="0" x2="1" y2="0">
      <stop offset="0%" stop-color="#3D1515"/>
      <stop offset="100%" stop-color="#4D1A1A"/>
    </linearGradient>
    <linearGradient id="correctGrad" x1="0" y1="0" x2="1" y2="0">
      <stop offset="0%" stop-color="#0F3020"/>
      <stop offset="100%" stop-color="#143D28"/>
    </linearGradient>
    <filter id="glow">
      <feGaussianBlur stdDeviation="3" result="coloredBlur"/>
      <feMerge><feMergeNode in="coloredBlur"/><feMergeNode in="SourceGraphic"/></feMerge>
    </filter>
    <filter id="softShadow" x="-5%" y="-5%" width="110%" height="110%">
      <feDropShadow dx="0" dy="4" stdDeviation="8" flood-color="#000000" flood-opacity="0.4"/>
    </filter>
    <marker id="arrowBlue" markerWidth="10" markerHeight="7" refX="9" refY="3.5" orient="auto">
      <polygon points="0 0, 10 3.5, 0 7" fill="#4A9EFF"/>
    </marker>
    <marker id="arrowRed" markerWidth="10" markerHeight="7" refX="9" refY="3.5" orient="auto">
      <polygon points="0 0, 10 3.5, 0 7" fill="#FF6B6B"/>
    </marker>
    <marker id="arrowGreen" markerWidth="10" markerHeight="7" refX="9" refY="3.5" orient="auto">
      <polygon points="0 0, 10 3.5, 0 7" fill="#4AFF9E"/>
    </marker>
    <marker id="arrowOrange" markerWidth="10" markerHeight="7" refX="9" refY="3.5" orient="auto">
      <polygon points="0 0, 10 3.5, 0 7" fill="#FFB347"/>
    </marker>
  </defs>

  <!-- Background -->
  <rect width="1000" height="1380" fill="url(#bgGrad)"/>

  <!-- Subtle grid -->
  <pattern id="grid" width="40" height="40" patternUnits="userSpaceOnUse">
    <path d="M 40 0 L 0 0 0 40" fill="none" stroke="#FFFFFF" stroke-width="0.3" stroke-opacity="0.04"/>
  </pattern>
  <rect width="1000" height="1380" fill="url(#grid)"/>

  <!-- Title -->
  <text x="500" y="44" text-anchor="middle" font-size="22" font-weight="700" fill="#E6EDF3" letter-spacing="1">PHP MEMORY LIMIT — SERVER ARCHITECTURE</text>
  <text x="500" y="66" text-anchor="middle" font-size="12" fill="#8B949E" letter-spacing="2">CloudLinux + LiteSpeed + cPanel/WHM — club4.no</text>
  <line x1="80" y1="78" x2="920" y2="78" stroke="#30363D" stroke-width="1"/>

  <!-- ═══════════════════════════════════════════════ -->
  <!-- LAYER 1: SERVER LAYER -->
  <!-- ═══════════════════════════════════════════════ -->
  <rect x="40" y="92" width="920" height="290" rx="10" fill="url(#serverGrad)" stroke="#2E6CB0" stroke-width="1.5" filter="url(#softShadow)"/>
  <rect x="40" y="92" width="920" height="34" rx="10" fill="#2E6CB0"/>
  <rect x="40" y="116" width="920" height="10" fill="#2E6CB0"/>
  <text x="60" y="114" font-size="12" font-weight="700" fill="#FFFFFF" letter-spacing="2">🟦  SERVER LAYER</text>

  <!-- LiteSpeed box -->
  <rect x="60" y="138" width="220" height="228" rx="8" fill="#0D2137" stroke="#4A9EFF" stroke-width="1.5"/>
  <rect x="60" y="138" width="220" height="28" rx="8" fill="#1565C0"/>
  <rect x="60" y="156" width="220" height="10" fill="#1565C0"/>
  <text x="170" y="157" text-anchor="middle" font-size="11" font-weight="700" fill="#FFFFFF">⚡ LiteSpeed Web Server</text>
  <text x="170" y="175" text-anchor="middle" font-size="10" fill="#90CAF9">PRIMARY — ACTIVE</text>
  <text x="75" y="196" font-size="10" fill="#B0BEC5">• Handles all live traffic</text>
  <text x="75" y="212" font-size="10" fill="#B0BEC5">• Reads memory from LVE</text>
  <text x="75" y="228" font-size="10" fill="#FF9800">• Uses ALT-PHP (problematic)</text>
  <text x="75" y="244" font-size="10" fill="#4CAF50">• Can use EA-PHP (correct)</text>
  <text x="75" y="268" font-size="10" fill="#8B949E">Handler Path:</text>
  <text x="75" y="283" font-size="9" fill="#4A9EFF" font-family="'Courier New', monospace">/opt/alt/php81/usr/bin/lsphp</text>
  <text x="75" y="298" font-size="9" fill="#4A9EFF" font-family="'Courier New', monospace">/opt/cpanel/ea-php81/...</text>
  <rect x="70" y="326" width="200" height="30" rx="4" fill="#1A3A5C" stroke="#4A9EFF" stroke-width="1"/>
  <text x="170" y="346" text-anchor="middle" font-size="10" font-weight="600" fill="#4A9EFF">Loaded Config (phpinfo):</text>

  <!-- Apache box -->
  <rect x="300" y="138" width="200" height="228" rx="8" fill="#0D1F2D" stroke="#607D8B" stroke-width="1.5" stroke-dasharray="6,3"/>
  <rect x="300" y="138" width="200" height="28" rx="8" fill="#37474F"/>
  <rect x="300" y="156" width="200" height="10" fill="#37474F"/>
  <text x="400" y="157" text-anchor="middle" font-size="11" font-weight="700" fill="#FFFFFF">🔄 Apache HTTP Server</text>
  <text x="400" y="175" text-anchor="middle" font-size="10" fill="#90A4AE">FALLBACK — STANDBY</text>
  <text x="315" y="196" font-size="10" fill="#B0BEC5">• Takes over if LiteSpeed fails</text>
  <text x="315" y="212" font-size="10" fill="#B0BEC5">• Part of cPanel/WHM stack</text>
  <text x="315" y="228" font-size="10" fill="#B0BEC5">• Active during troubleshoot</text>
  <text x="315" y="258" font-size="10" fill="#8B949E">Used during debugging phase</text>
  <text x="315" y="274" font-size="10" fill="#8B949E">when LiteSpeed was tested</text>

  <!-- Nginx box -->
  <rect x="516" y="138" width="190" height="228" rx="8" fill="#0D1A0D" stroke="#3D5A3D" stroke-width="1.5" stroke-dasharray="4,4"/>
  <rect x="516" y="138" width="190" height="28" rx="8" fill="#2D3A2D"/>
  <rect x="516" y="156" width="190" height="10" fill="#2D3A2D"/>
  <text x="611" y="157" text-anchor="middle" font-size="11" font-weight="700" fill="#9E9E9E">⛔ Nginx Reverse Proxy</text>
  <text x="611" y="175" text-anchor="middle" font-size="10" fill="#EF5350">DISABLED</text>
  <text x="531" y="196" font-size="10" fill="#616161">• Previously enabled</text>
  <text x="531" y="212" font-size="10" fill="#616161">• Disabled during debugging</text>
  <text x="531" y="228" font-size="10" fill="#616161">• Not part of current stack</text>
  <!-- X mark -->
  <line x1="580" y1="260" x2="640" y2="310" stroke="#EF5350" stroke-width="2.5" stroke-dasharray="4,3"/>
  <line x1="640" y1="260" x2="580" y2="310" stroke="#EF5350" stroke-width="2.5" stroke-dasharray="4,3"/>
  <text x="611" y="335" text-anchor="middle" font-size="10" fill="#EF5350">INACTIVE</text>

  <!-- CloudLinux / WHM / cPanel stack -->
  <rect x="724" y="138" width="216" height="228" rx="8" fill="#0D1A2D" stroke="#5C7A9E" stroke-width="1.5"/>
  <rect x="724" y="138" width="216" height="28" rx="8" fill="#1A3A5C"/>
  <rect x="724" y="156" width="216" height="10" fill="#1A3A5C"/>
  <text x="832" y="157" text-anchor="middle" font-size="11" font-weight="700" fill="#FFFFFF">☁️ CloudLinux Stack</text>
  <!-- Sub boxes -->
  <rect x="734" y="172" width="196" height="34" rx="4" fill="#112233" stroke="#4A7FA5" stroke-width="1"/>
  <text x="832" y="186" text-anchor="middle" font-size="10" font-weight="600" fill="#90CAF9">CloudLinux OS</text>
  <text x="832" y="199" text-anchor="middle" font-size="9" fill="#607D8B">Kernel-level resource control</text>
  <rect x="734" y="212" width="196" height="34" rx="4" fill="#112233" stroke="#4A7FA5" stroke-width="1"/>
  <text x="832" y="226" text-anchor="middle" font-size="10" font-weight="600" fill="#90CAF9">LVE Manager</text>
  <text x="832" y="239" text-anchor="middle" font-size="9" fill="#607D8B">Sets PMEM limits per user</text>
  <rect x="734" y="252" width="93" height="34" rx="4" fill="#112233" stroke="#4A7FA5" stroke-width="1"/>
  <text x="780" y="266" text-anchor="middle" font-size="10" font-weight="600" fill="#90CAF9">WHM</text>
  <text x="780" y="279" text-anchor="middle" font-size="9" fill="#607D8B">Server mgmt</text>
  <rect x="837" y="252" width="93" height="34" rx="4" fill="#112233" stroke="#4A7FA5" stroke-width="1"/>
  <text x="883" y="266" text-anchor="middle" font-size="10" font-weight="600" fill="#90CAF9">cPanel</text>
  <text x="883" y="279" text-anchor="middle" font-size="9" fill="#607D8B">User control</text>
  <rect x="734" y="292" width="196" height="34" rx="4" fill="#0A1A0A" stroke="#2E7D32" stroke-width="1"/>
  <text x="832" y="306" text-anchor="middle" font-size="10" font-weight="600" fill="#81C784">CageFS</text>
  <text x="832" y="319" text-anchor="middle" font-size="9" fill="#4CAF50">Virtualised FS per user</text>

  <!-- ═══════════════════════════════════════════════ -->
  <!-- LAYER 2: PHP LAYER -->
  <!-- ═══════════════════════════════════════════════ -->
  <rect x="40" y="402" width="920" height="248" rx="10" fill="url(#phpGrad)" stroke="#388E3C" stroke-width="1.5" filter="url(#softShadow)"/>
  <rect x="40" y="402" width="920" height="34" rx="10" fill="#2E7D32"/>
  <rect x="40" y="416" width="920" height="20" fill="#2E7D32"/>
  <text x="60" y="424" font-size="12" font-weight="700" fill="#FFFFFF" letter-spacing="2">🟩  PHP LAYER</text>

  <!-- ALT-PHP box (problematic) -->
  <rect x="60" y="448" width="410" height="188" rx="8" fill="url(#problemGrad)" stroke="#F44336" stroke-width="2"/>
  <rect x="60" y="448" width="410" height="30" rx="8" fill="#C62828"/>
  <rect x="60" y="466" width="410" height="12" fill="#C62828"/>
  <text x="265" y="467" text-anchor="middle" font-size="12" font-weight="700" fill="#FFFFFF">⚠️  ALT-PHP 8.1 Handler — PROBLEMATIC</text>
  <text x="265" y="485" text-anchor="middle" font-size="10" fill="#EF9A9A">CloudLinux ALT-PHP  |  cPanel PHP Selector</text>
  <text x="75" y="506" font-size="10" fill="#EF5350">✗  Ignores /opt/cpanel/ea-php81/root/etc/php.ini</text>
  <text x="75" y="522" font-size="10" fill="#EF5350">✗  Ignores .htaccess php_value directives</text>
  <text x="75" y="538" font-size="10" fill="#EF5350">✗  Ignores MultiPHP INI Editor (EA settings)</text>
  <text x="75" y="554" font-size="10" fill="#EF5350">✗  PHP-FPM cannot be enabled</text>
  <text x="75" y="570" font-size="10" fill="#FF9800">⚡ Forces memory_limit = 128M via CageFS</text>
  <text x="75" y="594" font-size="9" fill="#8B949E">Binary: /opt/alt/php81/usr/bin/lsphp</text>
  <text x="75" y="608" font-size="9" fill="#8B949E">Config: /opt/alt/php81/etc/php.ini</text>
  <rect x="75" y="616" width="380" height="14" rx="3" fill="#1A0A0A" stroke="#F44336" stroke-width="1"/>
  <text x="265" y="627" text-anchor="middle" font-size="9" fill="#FF8A80">LiteSpeed loads THIS handler — root cause of memory issue</text>

  <!-- EA-PHP box (correct) -->
  <rect x="490" y="448" width="450" height="188" rx="8" fill="url(#correctGrad)" stroke="#4CAF50" stroke-width="2"/>
  <rect x="490" y="448" width="450" height="30" rx="8" fill="#2E7D32"/>
  <rect x="490" y="466" width="450" height="12" fill="#2E7D32"/>
  <text x="715" y="467" text-anchor="middle" font-size="12" font-weight="700" fill="#FFFFFF">✅  EA-PHP 8.1 Handler — CORRECT</text>
  <text x="715" y="485" text-anchor="middle" font-size="10" fill="#A5D6A7">EasyApache EA-PHP  |  WHM MultiPHP Manager</text>
  <text x="505" y="506" font-size="10" fill="#4CAF50">✓  Respects /opt/cpanel/ea-php81/root/etc/php.ini</text>
  <text x="505" y="522" font-size="10" fill="#4CAF50">✓  Respects .htaccess php_value directives</text>
  <text x="505" y="538" font-size="10" fill="#4CAF50">✓  Works with MultiPHP INI Editor</text>
  <text x="505" y="554" font-size="10" fill="#4CAF50">✓  PHP-FPM compatible</text>
  <text x="505" y="570" font-size="10" fill="#A5D6A7">✓  Honors memory_limit = 512M</text>
  <text x="505" y="594" font-size="9" fill="#8B949E">Binary: /opt/cpanel/ea-php81/root/usr/bin/lsphp</text>
  <text x="505" y="608" font-size="9" fill="#8B949E">Config: /opt/cpanel/ea-php81/root/etc/php.ini</text>
  <rect x="505" y="616" width="420" height="14" rx="3" fill="#0A1A0A" stroke="#4CAF50" stroke-width="1"/>
  <text x="715" y="627" text-anchor="middle" font-size="9" fill="#69F0AE">LiteSpeed should use THIS handler for correct memory handling</text>

  <!-- ═══════════════════════════════════════════════ -->
  <!-- LAYER 3: WORDPRESS LAYER -->
  <!-- ═══════════════════════════════════════════════ -->
  <rect x="40" y="670" width="920" height="300" rx="10" fill="url(#wpGrad)" stroke="#F57C00" stroke-width="1.5" filter="url(#softShadow)"/>
  <rect x="40" y="670" width="920" height="34" rx="10" fill="#E65100"/>
  <rect x="40" y="684" width="920" height="20" fill="#E65100"/>
  <text x="60" y="692" font-size="12" font-weight="700" fill="#FFFFFF" letter-spacing="2">🟧  WORDPRESS LAYER</text>

  <!-- WordPress Core -->
  <rect x="60" y="716" width="200" height="238" rx="8" fill="#1A1200" stroke="#FF8F00" stroke-width="1.5"/>
  <rect x="60" y="716" width="200" height="28" rx="8" fill="#E65100"/>
  <rect x="60" y="734" width="200" height="10" fill="#E65100"/>
  <text x="160" y="734" text-anchor="middle" font-size="11" font-weight="700" fill="#FFFFFF">WordPress Core</text>
  <text x="75" y="758" font-size="9" fill="#8B949E">default-constants.php:</text>
  <text x="75" y="773" font-size="9" fill="#FFB74D" font-family="'Courier New', monospace">WP_MEMORY_LIMIT</text>
  <text x="75" y="788" font-size="9" fill="#FFB74D" font-family="'Courier New', monospace">WP_MAX_MEMORY_LIMIT</text>
  <text x="75" y="810" font-size="9" fill="#8B949E">wp-config.php:</text>
  <text x="75" y="825" font-size="9" fill="#4CAF50" font-family="'Courier New', monospace">define('WP_MEMORY_LIMIT',</text>
  <text x="75" y="838" font-size="9" fill="#4CAF50" font-family="'Courier New', monospace">  '512M');</text>
  <text x="75" y="858" font-size="9" fill="#4CAF50" font-family="'Courier New', monospace">ini_set('memory_limit',</text>
  <text x="75" y="871" font-size="9" fill="#4CAF50" font-family="'Courier New', monospace">  '512M');</text>
  <text x="75" y="893" font-size="9" fill="#8B949E">.user.ini:</text>
  <text x="75" y="908" font-size="9" fill="#4CAF50" font-family="'Courier New', monospace">memory_limit = 512M</text>
  <text x="75" y="930" font-size="9" fill="#FF7043">⚠ Overridden at runtime</text>
  <text x="75" y="943" font-size="9" fill="#FF7043">by plugin/theme on load</text>

  <!-- Bootstrap stages -->
  <rect x="278" y="716" width="200" height="238" rx="8" fill="#1A1200" stroke="#FF8F00" stroke-width="1.5"/>
  <rect x="278" y="716" width="200" height="28" rx="8" fill="#BF360C"/>
  <rect x="278" y="734" width="200" height="10" fill="#BF360C"/>
  <text x="378" y="734" text-anchor="middle" font-size="11" font-weight="700" fill="#FFFFFF">Bootstrap Stages</text>
  <text x="378" y="758" text-anchor="middle" font-size="9" fill="#8B949E">wp-settings.php execution order:</text>
  <rect x="290" y="766" width="176" height="20" rx="3" fill="#0D1117" stroke="#607D8B" stroke-width="1"/>
  <text x="378" y="780" text-anchor="middle" font-size="10" fill="#90CAF9">muplugins_loaded</text>
  <rect x="290" y="792" width="176" height="20" rx="3" fill="#0D1117" stroke="#607D8B" stroke-width="1"/>
  <text x="378" y="806" text-anchor="middle" font-size="10" fill="#90CAF9">plugins_loaded</text>
  <rect x="290" y="818" width="176" height="20" rx="3" fill="#0D1117" stroke="#607D8B" stroke-width="1"/>
  <text x="378" y="832" text-anchor="middle" font-size="10" fill="#90CAF9">after_setup_theme</text>
  <rect x="290" y="844" width="176" height="20" rx="3" fill="#0D1117" stroke="#607D8B" stroke-width="1"/>
  <text x="378" y="858" text-anchor="middle" font-size="10" fill="#90CAF9">init</text>
  <rect x="290" y="870" width="176" height="20" rx="3" fill="#0D1117" stroke="#607D8B" stroke-width="1"/>
  <text x="378" y="884" text-anchor="middle" font-size="10" fill="#90CAF9">wp_loaded</text>
  <text x="378" y="910" text-anchor="middle" font-size="9" fill="#FF7043">Memory can be overridden</text>
  <text x="378" y="923" text-anchor="middle" font-size="9" fill="#FF7043">at any of these stages</text>
  <text x="378" y="944" text-anchor="middle" font-size="9" fill="#4CAF50">MU-Plugin hooks into all 5</text>

  <!-- Plugins box -->
  <rect x="496" y="716" width="444" height="238" rx="8" fill="#1A1200" stroke="#FF8F00" stroke-width="1.5"/>
  <rect x="496" y="716" width="444" height="28" rx="8" fill="#BF360C"/>
  <rect x="496" y="734" width="444" height="10" fill="#BF360C"/>
  <text x="718" y="734" text-anchor="middle" font-size="11" font-weight="700" fill="#FFFFFF">Active Plugins</text>
  <!-- Plugin items in grid -->
  <rect x="510" y="752" width="196" height="52" rx="4" fill="#0D1117" stroke="#FF8F00" stroke-width="1"/>
  <text x="608" y="768" text-anchor="middle" font-size="10" font-weight="600" fill="#FF9800">Divi Theme</text>
  <text x="608" y="782" text-anchor="middle" font-size="9" fill="#8B949E">functions.php line 5112</text>
  <text x="608" y="796" text-anchor="middle" font-size="9" fill="#FF7043">triggers memory drop</text>

  <rect x="716" y="752" width="210" height="52" rx="4" fill="#0D1117" stroke="#FF8F00" stroke-width="1"/>
  <text x="821" y="768" text-anchor="middle" font-size="10" font-weight="600" fill="#FF9800">Paid Memberships Pro</text>
  <text x="821" y="782" text-anchor="middle" font-size="9" fill="#8B949E">action-scheduler</text>
  <text x="821" y="796" text-anchor="middle" font-size="9" fill="#8B949E">128M fallback default</text>

  <rect x="510" y="812" width="196" height="52" rx="4" fill="#0D1117" stroke="#607D8B" stroke-width="1"/>
  <text x="608" y="828" text-anchor="middle" font-size="10" font-weight="600" fill="#90CAF9">PeepSo</text>
  <text x="608" y="842" text-anchor="middle" font-size="9" fill="#8B949E">Community plugin</text>
  <text x="608" y="856" text-anchor="middle" font-size="9" fill="#8B949E">No memory override</text>

  <rect x="716" y="812" width="210" height="52" rx="4" fill="#0D1117" stroke="#607D8B" stroke-width="1"/>
  <text x="821" y="828" text-anchor="middle" font-size="10" font-weight="600" fill="#90CAF9">LiteSpeed Cache</text>
  <text x="821" y="842" text-anchor="middle" font-size="9" fill="#8B949E">Performance plugin</text>
  <text x="821" y="856" text-anchor="middle" font-size="9" fill="#8B949E">No memory override</text>

  <rect x="510" y="872" width="416" height="26" rx="4" fill="#1A0A00" stroke="#FF7043" stroke-width="1"/>
  <text x="718" y="889" text-anchor="middle" font-size="9" fill="#FF7043">Several plugins contain ini_set('memory_limit', '128M') as a fallback — this overrides server settings</text>

  <rect x="510" y="904" width="416" height="42" rx="4" fill="#0A1A00" stroke="#4CAF50" stroke-width="1"/>
  <text x="718" y="919" text-anchor="middle" font-size="9" fill="#4CAF50">UpdraftPlus, WP Statistics, Modern Events Calendar,</text>
  <text x="718" y="932" text-anchor="middle" font-size="9" fill="#4CAF50">Amazon S3 Offload — all contain 128M ini_set calls</text>
  <text x="718" y="945" text-anchor="middle" font-size="9" fill="#8B949E">(neutralised by MU-Plugin running at priority 99999)</text>

  <!-- ═══════════════════════════════════════════════ -->
  <!-- LAYER 4: FIX LAYER -->
  <!-- ═══════════════════════════════════════════════ -->
  <rect x="40" y="990" width="920" height="210" rx="10" fill="url(#fixGrad)" stroke="#D32F2F" stroke-width="2" filter="url(#softShadow)"/>
  <rect x="40" y="990" width="920" height="34" rx="10" fill="#B71C1C"/>
  <rect x="40" y="1004" width="920" height="20" fill="#B71C1C"/>
  <text x="60" y="1012" font-size="12" font-weight="700" fill="#FFFFFF" letter-spacing="2">🟥  FIX LAYER — MU-PLUGIN (FINAL AUTHORITY)</text>

  <rect x="60" y="1036" width="880" height="150" rx="8" fill="#0D0505" stroke="#FF5252" stroke-width="2"/>
  <text x="500" y="1058" text-anchor="middle" font-size="14" font-weight="700" fill="#FF5252" filter="url(#glow)">★  MU-Plugin: force-memory-limit.php</text>
  <text x="500" y="1074" text-anchor="middle" font-size="10" fill="#EF9A9A">wp-content/mu-plugins/  |  Cannot be disabled  |  Loads before all plugins</text>

  <rect x="75" y="1082" width="380" height="94" rx="6" fill="#0A0A0A" stroke="#333" stroke-width="1"/>
  <text x="265" y="1098" text-anchor="middle" font-size="10" fill="#569CD6">ini_set</text>
  <text x="310" y="1098" font-size="10" fill="#CCCCCC">(</text>
  <text x="318" y="1098" font-size="10" fill="#CE9178">'memory_limit'</text>
  <text x="400" y="1098" font-size="10" fill="#CCCCCC">, </text>
  <text x="410" y="1098" font-size="10" fill="#CE9178">'512M'</text>
  <text x="450" y="1098" font-size="10" fill="#CCCCCC">);</text>
  <text x="85" y="1113" font-size="9" fill="#6A9955">// Hooks at priority 99999 — always runs LAST</text>
  <text x="85" y="1128" font-size="9" fill="#4EC9B0">add_action</text>
  <text x="150" y="1128" font-size="9" fill="#CCCCCC">('muplugins_loaded', $force, 99999);</text>
  <text x="85" y="1141" font-size="9" fill="#4EC9B0">add_action</text>
  <text x="150" y="1141" font-size="9" fill="#CCCCCC">('plugins_loaded',   $force, 99999);</text>
  <text x="85" y="1154" font-size="9" fill="#4EC9B0">add_action</text>
  <text x="150" y="1154" font-size="9" fill="#CCCCCC">('after_setup_theme',$force, 99999);</text>
  <text x="85" y="1167" font-size="9" fill="#4EC9B0">add_action</text>
  <text x="150" y="1167" font-size="9" fill="#CCCCCC">('init',             $force, 99999);</text>

  <rect x="475" y="1082" width="450" height="94" rx="6" fill="#001A00" stroke="#1B5E20" stroke-width="1"/>
  <text x="700" y="1100" text-anchor="middle" font-size="11" font-weight="700" fill="#69F0AE">RESULT</text>
  <text x="490" y="1118" font-size="10" fill="#4CAF50">✓  PHP memory limit: 512M</text>
  <text x="490" y="1134" font-size="10" fill="#4CAF50">✓  WordPress Site Health: 512M</text>
  <text x="490" y="1150" font-size="10" fill="#4CAF50">✓  PMPro activates without fatal error</text>
  <text x="490" y="1166" font-size="10" fill="#4CAF50">✓  Divi Theme Customizer works</text>

  <!-- ═══════════════════════════════════════════════ -->
  <!-- MEMORY FLOW DIAGRAM -->
  <!-- ═══════════════════════════════════════════════ -->
  <rect x="40" y="1222" width="920" height="136" rx="10" fill="#0D1117" stroke="#30363D" stroke-width="1.5"/>
  <rect x="40" y="1222" width="920" height="28" rx="10" fill="#21262D"/>
  <rect x="40" y="1240" width="920" height="10" fill="#21262D"/>
  <text x="60" y="1240" font-size="11" font-weight="700" fill="#8B949E" letter-spacing="2">🟥  MEMORY RESOLUTION FLOW</text>

  <!-- Flow boxes -->
  <rect x="55" y="1262" width="100" height="40" rx="5" fill="#1C2E4A" stroke="#4A9EFF" stroke-width="1.5"/>
  <text x="105" y="1278" text-anchor="middle" font-size="9" font-weight="600" fill="#90CAF9">php.ini</text>
  <text x="105" y="1293" text-anchor="middle" font-size="9" fill="#607D8B">512M set</text>

  <line x1="156" y1="1282" x2="176" y2="1282" stroke="#4A9EFF" stroke-width="2" marker-end="url(#arrowBlue)"/>

  <rect x="178" y="1262" width="110" height="40" rx="5" fill="#1C2E4A" stroke="#4A9EFF" stroke-width="1.5"/>
  <text x="233" y="1278" text-anchor="middle" font-size="9" font-weight="600" fill="#90CAF9">CloudLinux</text>
  <text x="233" y="1293" text-anchor="middle" font-size="9" fill="#607D8B">LVE enforces</text>

  <line x1="289" y1="1282" x2="309" y2="1282" stroke="#4A9EFF" stroke-width="2" marker-end="url(#arrowBlue)"/>

  <rect x="311" y="1262" width="110" height="40" rx="5" fill="#3D1515" stroke="#F44336" stroke-width="1.5"/>
  <text x="366" y="1278" text-anchor="middle" font-size="9" font-weight="600" fill="#EF9A9A">ALT-PHP</text>
  <text x="366" y="1293" text-anchor="middle" font-size="9" fill="#EF5350">ignores files</text>

  <line x1="422" y1="1282" x2="442" y2="1282" stroke="#FF6B6B" stroke-width="2" marker-end="url(#arrowRed)"/>

  <rect x="444" y="1262" width="110" height="40" rx="5" fill="#1C2E4A" stroke="#4A9EFF" stroke-width="1.5"/>
  <text x="499" y="1278" text-anchor="middle" font-size="9" font-weight="600" fill="#90CAF9">LiteSpeed</text>
  <text x="499" y="1293" text-anchor="middle" font-size="9" fill="#607D8B">serves request</text>

  <line x1="555" y1="1282" x2="575" y2="1282" stroke="#4A9EFF" stroke-width="2" marker-end="url(#arrowBlue)"/>

  <rect x="577" y="1262" width="110" height="40" rx="5" fill="#3A2800" stroke="#FF8F00" stroke-width="1.5"/>
  <text x="632" y="1278" text-anchor="middle" font-size="9" font-weight="600" fill="#FFB74D">WP Bootstrap</text>
  <text x="632" y="1293" text-anchor="middle" font-size="9" fill="#FF7043">128M override</text>

  <line x1="688" y1="1282" x2="708" y2="1282" stroke="#FFB347" stroke-width="2" marker-end="url(#arrowOrange)"/>

  <rect x="710" y="1262" width="110" height="40" rx="5" fill="#3A1A1A" stroke="#F44336" stroke-width="1.5"/>
  <text x="765" y="1278" text-anchor="middle" font-size="9" font-weight="600" fill="#EF9A9A">Plugins</text>
  <text x="765" y="1293" text-anchor="middle" font-size="9" fill="#EF5350">set 128M</text>

  <line x1="821" y1="1282" x2="841" y2="1282" stroke="#4AFF9E" stroke-width="2.5" marker-end="url(#arrowGreen)"/>

  <rect x="843" y="1258" width="112" height="48" rx="5" fill="#001A00" stroke="#4CAF50" stroke-width="2" filter="url(#glow)"/>
  <text x="899" y="1276" text-anchor="middle" font-size="9" font-weight="700" fill="#69F0AE">MU-Plugin</text>
  <text x="899" y="1289" text-anchor="middle" font-size="9" fill="#4CAF50">FINAL: 512M</text>
  <text x="899" y="1302" text-anchor="middle" font-size="8" fill="#388E3C">priority 99999</text>

  <!-- Legend line labels -->
  <text x="55" y="1348" font-size="9" fill="#4A9EFF">━━  Normal flow</text>
  <text x="200" y="1348" font-size="9" fill="#FF6B6B">━━  Problem path</text>
  <text x="350" y="1348" font-size="9" fill="#FFB347">━━  Override attempt</text>
  <text x="530" y="1348" font-size="9" fill="#4AFF9E">━━  Final fix (MU-Plugin wins)</text>
  <text x="500" y="1368" text-anchor="middle" font-size="9" fill="#484F58">Generated during debugging of PHP memory_limit stuck at 128M — club4.no — March 2026</text>

  <!-- Vertical connector arrows between layers -->
  <line x1="500" y1="382" x2="500" y2="400" stroke="#30363D" stroke-width="1.5" stroke-dasharray="4,3" marker-end="url(#arrowBlue)"/>
  <line x1="500" y1="650" x2="500" y2="668" stroke="#30363D" stroke-width="1.5" stroke-dasharray="4,3" marker-end="url(#arrowBlue)"/>
  <line x1="500" y1="970" x2="500" y2="988" stroke="#30363D" stroke-width="1.5" stroke-dasharray="4,3" marker-end="url(#arrowGreen)"/>
  <line x1="500" y1="1200" x2="500" y2="1220" stroke="#30363D" stroke-width="1.5" stroke-dasharray="4,3" marker-end="url(#arrowBlue)"/>
</svg>
